<svg xmlns="http://www.w3.org/2000/svg" xmlns:svg="http://www.w3.org/2000/svg" id="svg44" width="86" height="86" x="0" y="0" enable-background="new 0 0 86 86" version="1.1" viewBox="0 0 86 86" xml:space="preserve"><metadata id="metadata50"/><defs id="defs48"><linearGradient id="SVGID_1_" x1="671.854" x2="756.421" y1="85.283" y2=".717" gradientTransform="translate(-671.1376)" gradientUnits="userSpaceOnUse"><stop id="stop3" offset="0" style="stop-color:#f7d6b3"/><stop id="stop5" offset=".5" style="stop-color:#777f81"/><stop id="stop7" offset=".995" style="stop-color:#f6ffe4"/></linearGradient></defs><path style="fill:url(#SVGID_1_)" id="path10" d="M 84.277,0.3 H 43 C 19.417,0.3 0.3,19.418 0.3,43 v 41.277 c 0,0.786 0.637,1.423 1.423,1.423 H 43 C 66.583,85.7 85.7,66.582 85.7,43 V 1.723 C 85.7,0.937 85.063,0.3 84.277,0.3 Z"/><g id="g1238" transform="matrix(0.66113903,0,0,0.66113903,-69.636362,4.4125412)"><path style="color:#000;display:inline;overflow:visible;visibility:visible;fill:#1a1a1a;fill-opacity:1;fill-rule:nonzero;stroke:none;stroke-width:1.14052284;marker:none;enable-background:accumulate" id="path3829" d="m 177.59842,20.290397 c -11.29866,0 -11.01087,12.017371 -20.95176,12.267907 h -7.46811 -1.35784 -3.67879 -15.10989 -2.58937 -0.17368 c -4.19856,0 -7.57863,3.380071 -7.57863,7.578632 v 48.724277 c 0,4.198561 3.38007,7.57863 7.57863,7.57863 h 88.19631 c 4.19856,0 7.57863,-3.380069 7.57863,-7.57863 V 40.136936 c 0,-4.198561 -3.38007,-7.578632 -7.57863,-7.578632 h -8.6049 c -9.94089,-0.250536 -9.6531,-12.267907 -20.95175,-12.267907 z m -44.98233,7.799677 c -1.98326,0 -3.58406,1.528396 -3.58406,3.441956 h 15.10989 c 0,-1.91356 -1.58502,-3.441956 -3.56827,-3.441956 z"/><circle style="color:#000;display:inline;overflow:visible;visibility:visible;fill:none;stroke:#fff;stroke-width:2.52621007;stroke-linecap:round;stroke-linejoin:round;stroke-miterlimit:4;stroke-dasharray:none;stroke-opacity:1;marker:none;enable-background:accumulate" id="path3772" cx="181.251" cy="64.889" r="23.222"/><rect style="color:#000;display:inline;overflow:visible;visibility:visible;fill:#fff;fill-opacity:1;fill-rule:nonzero;stroke:none;stroke-width:.25232804;marker:none;enable-background:accumulate" id="rect3797" width="13.048" height="7.273" x="174.73" y="22.788" ry="3.636"/><g id="g1183" transform="matrix(1.4271644,0,0,1.4271644,-140.36254,-124.94303)"><g id="g4180" transform="matrix(0.01979319,0,0,0.01979319,209.10611,116.90919)"><linearGradient id="SVGID_1_-4" x1="1174.401" x2="302.401" y1="1199.535" y2="1495.535" gradientUnits="userSpaceOnUse"><stop id="stop4183" offset="0" style="stop-color:#8fd9ff"/><stop id="stop4185" offset="1" style="stop-color:#005a97"/></linearGradient><path id="path4187" d="m 1129.3434,1185.5632 c 12.699,-133.3132 10.5593,-258.618 8.2264,-320.4229 l -143.7966,249.063 0.2117,0.3142 c -0.0488,0.033 -0.2675,0.1794 -0.64,0.4279 l -0.493,0.8541 h -0.7924 c -17.7061,11.7334 -154.6073,101.3115 -316.7206,175.4233 -101.9248,46.5959 -193.8532,78.1162 -273.2319,93.6855 -51.2694,10.0562 -97.4708,13.4342 -138.3306,10.1848 144.3976,142.1157 342.5172,229.8083 561.1252,229.8083 60.0491,0 118.5476,-6.6301 174.8169,-19.1731 29.5822,-34.9309 54.8085,-82.5996 75.3447,-142.5306 25.5804,-74.6484 43.8428,-168.0581 54.2802,-277.6345 z" style="fill:url(#SVGID_1_-4)"/><linearGradient id="SVGID_2_" x1="482.461" x2="1354.44" y1="445.867" y2="167.583" gradientUnits="userSpaceOnUse"><stop id="stop4190" offset="0" style="stop-color:#fff33b"/><stop id="stop4192" offset="1" style="stop-color:#e93e3a"/></linearGradient><path id="path4194" d="m 656.9514,534.0035 h 0.7925 c 17.7064,-11.7336 154.6073,-101.3115 316.7205,-175.4234 101.9248,-46.5958 193.853,-78.1162 273.2318,-93.6854 51.2694,-10.0563 97.4708,-13.4343 138.3307,-10.1849 C 1241.6292,112.5942 1043.5096,24.9016 824.9016,24.9016 c -60.0491,0 -118.5476,6.6301 -174.817,19.173 -29.582,34.9311 -54.8083,82.5997 -75.3447,142.5306 -25.5801,74.6484 -43.8427,168.0583 -54.2801,277.6346 -12.699,133.3133 -10.5593,258.618 -8.2264,320.423 l 143.7965,-249.063 -0.2115,-0.3142 c 0.0487,-0.0328 0.2673,-0.1794 0.6399,-0.4278 z" style="fill:url(#SVGID_2_)"/><linearGradient id="SVGID_3_" x1="980.233" x2="1672.272" y1="339.829" y2="947.8" gradientUnits="userSpaceOnUse"><stop id="stop4197" offset="0" style="stop-color:#8cc63f"/><stop id="stop4199" offset=".108" style="stop-color:#90c03d"/><stop id="stop4201" offset=".256" style="stop-color:#9aae38"/><stop id="stop4203" offset=".426" style="stop-color:#aa922e"/><stop id="stop4205" offset=".612" style="stop-color:#c16a22"/><stop id="stop4207" offset=".809" style="stop-color:#df3812"/><stop id="stop4209" offset="1" style="stop-color:red"/></linearGradient><path id="path4211" d="m 1252.6016,289.107 c -77.4375,15.1711 -167.4641,46.0602 -267.5786,91.8093 -121.8022,55.659 -229.2493,120.1644 -281.6075,153.0872 h 287.593 l 0.1664,-0.3403 c 0.0529,0.0258 0.2892,0.1418 0.6906,0.3403 h 0.9865 l 0.396,0.6862 c 19.0148,9.4673 165.042,83.2381 310.2813,186.5763 91.3157,64.9715 164.5774,128.8236 217.75,189.783 34.4314,39.4731 60.5011,77.8907 78.1187,114.9888 16.6426,-64.2667 25.5039,-131.6661 25.5039,-201.1362 0,-209.0386 -80.1853,-399.3416 -211.4622,-541.8556 -44.9883,-8.097 -98.7913,-6.0954 -160.8381,6.061 z" style="fill:url(#SVGID_3_)"/><linearGradient id="SVGID_4_" x1="1322.243" x2="1162.243" y1="706.05" y2="1614.05" gradientUnits="userSpaceOnUse"><stop id="stop4214" offset="0" style="stop-color:#ff49c1"/><stop id="stop4216" offset=".097" style="stop-color:#f947c2"/><stop id="stop4218" offset=".221" style="stop-color:#e943c6"/><stop id="stop4220" offset=".36" style="stop-color:#cf3bcd"/><stop id="stop4222" offset=".51" style="stop-color:#aa31d6"/><stop id="stop4224" offset=".67" style="stop-color:#7a23e1"/><stop id="stop4226" offset=".835" style="stop-color:#4113ef"/><stop id="stop4228" offset="1" style="stop-color:#00f"/></linearGradient><path id="path4230" d="M 1502.7632,927.4033 C 1450.9059,867.926 1379.1419,805.4053 1289.4646,741.578 1180.3616,663.9237 1070.7747,603.1244 1016.0835,574.2423 l 143.7966,249.063 0.3779,-0.0261 c 0,0.0587 0.022,0.3212 0.051,0.7682 l 0.493,0.8542 -0.3961,0.6861 c 1.3085,21.2008 10.4347,184.5495 -6.4392,361.9997 -10.6091,111.5674 -29.2759,206.9398 -55.4819,283.4685 -16.969,49.5552 -37.2048,91.3409 -60.5239,125.1475 261.8225,-72.1638 469.8518,-274.058 550.5939,-532.208 -15.4537,-43.1067 -44.1329,-88.8135 -85.7911,-136.5921 z" style="fill:url(#SVGID_4_)"/><linearGradient id="SVGID_5_" x1="649.136" x2="15.137" y1="1300.132" y2="654.132" gradientUnits="userSpaceOnUse"><stop id="stop4233" offset="0" style="stop-color:#c3d7ff"/><stop id="stop4235" offset="1" style="stop-color:#00cba5"/></linearGradient><path id="path4237" d="m 397.2016,1360.696 c 77.4375,-15.1711 167.4641,-46.0602 267.5786,-91.8092 121.8022,-55.6591 229.2494,-120.1644 281.6077,-153.0873 H 658.7948 l -0.1664,0.3403 c -0.0529,-0.026 -0.2892,-0.1418 -0.6906,-0.3403 h -0.9865 l -0.396,-0.6862 C 637.5405,1105.646 491.5133,1031.8751 346.274,928.537 254.9584,863.5655 181.6968,799.7134 128.5241,738.754 94.0926,699.281 68.0229,660.8634 50.4053,623.7652 33.7628,688.032 24.9016,755.4315 24.9016,824.9016 c 0,209.0385 80.1852,399.3416 211.4622,541.8555 44.988,8.0971 98.791,6.0954 160.8378,-6.0611 z" style="fill:url(#SVGID_5_)"/><linearGradient id="SVGID_6_" x1="327.681" x2="467.681" y1="961.955" y2="33.954" gradientUnits="userSpaceOnUse"><stop id="stop4240" offset="0" style="stop-color:#ede928"/><stop id="stop4242" offset="1" style="stop-color:#f37e31"/></linearGradient><path id="path4244" d="m 147.04,722.3998 c 51.8573,59.4772 123.6213,121.998 213.2984,185.8253 109.1033,77.6542 218.6902,138.4536 273.3813,167.3357 L 489.923,826.4979 l -0.3779,0.026 c -0.004,-0.0586 -0.0217,-0.3212 -0.0505,-0.7681 l -0.4931,-0.8542 0.3961,-0.6862 c -1.3083,-21.2006 -10.4347,-184.5494 6.4392,-361.9998 10.6092,-111.5673 29.2759,-206.9397 55.482,-283.4684 16.969,-49.5551 37.2048,-91.341 60.5239,-125.1474 -261.8225,72.1639 -469.8518,274.058 -550.5938,532.2081 15.4537,43.1067 44.1329,88.8133 85.7911,136.5919 z" style="fill:url(#SVGID_6_)"/></g></g></g></svg>